<svg 
	 viewBox="0 0 491.52 491.52" style="enable-background:new 0 0 491.52 491.52;">
<g>
	<g>
		<polygon points="334.879,7.93 334.879,94.307 421.256,94.307 		"/>
	</g>
</g>
<g>
	
</g>

<g>
	<g>
		<path d="M326.95,110.162c-4.382,0-7.928-3.546-7.928-7.927V0H62.335v491.52h366.849V110.162H326.95z M99.577,205.659l4.166-25.154
			c1.587-9.6,8.261-17.621,17.419-20.934l40.305-14.586c0,0,0.009,0,0.014-0.002c0,0,0.006-0.004,0.009-0.005l7.131-2.553v-1.603
			c-14.614-12.649-15.284-34.489-15.306-35.483v-5.013c-0.166-2.562-0.913-4.707-2.245-6.36c-3.415-4.251-5.288-9.616-5.288-15.113
			V61.837c0-20.191,16.428-36.612,36.619-36.612h43.347c0.511,0,1.014,0.047,1.509,0.147c7.758,1.502,11.288,5.574,12.891,8.718
			c1.061,2.098,1.509,4.188,1.602,6.116c7.858,4.715,11.04,12.968,11.675,17.937c0.038,0.333,0.062,0.666,0.062,0.999V82.29
			c0,3.569-1.007,7.076-2.919,10.142c-3.615,5.791-4.792,13.2-4.8,13.277c-0.02,0.134-0.099,0.239-0.126,0.369
			c-2.046,19.233-9.383,29.254-15.133,34.253v2.094l7.123,2.551l0.008,0.005c0.005,0.002,0.009,0,0.015,0.002l40.305,14.586
			c9.158,3.306,15.832,11.326,17.419,20.934l4.165,25.161c0.798,4.785-0.549,9.662-3.685,13.362
			c-3.143,3.709-7.726,5.83-12.588,5.83H115.859c-4.862,0-9.453-2.129-12.596-5.83C100.127,215.321,98.78,210.451,99.577,205.659z
			 M333.376,447.478H107.281c-4.382,0-7.928-3.546-7.928-7.928c0-4.381,3.546-7.927,7.928-7.927h226.095
			c4.382,0,7.927,3.546,7.927,7.927C341.304,443.932,337.759,447.478,333.376,447.478z M384.241,405.184h-276.96

			C392.168,401.638,388.622,405.184,384.241,405.184z M384.241,362.882h-276.96c-4.382,0-7.928-3.546-7.928-7.928
			c0-4.381,3.546-7.927,7.928-7.927h276.96c4.381,0,7.927,3.546,7.927,7.927C392.168,359.336,388.622,362.882,384.241,362.882z

			c4.381,0,7.927,3.546,7.927,7.928C392.168,317.042,388.622,320.588,384.241,320.588z M384.241,278.294h-276.96
			c-4.382,0-7.928-3.546-7.928-7.928s3.546-7.928,7.928-7.928h276.96c4.381,0,7.927,3.546,7.927,7.928
			S388.622,278.294,384.241,278.294z"/>
	</g>
</g>
</svg>
